<svg version="1.1" id="Layer_1" xmlns="http://www.w3.org/2000/svg" xmlns:xlink="http://www.w3.org/1999/xlink" x="0px" y="0px"
	 width="100%" viewBox="0 0 173 106" enable-background="new 0 0 173 106" xml:space="preserve">
<path fill="#242932" opacity="1.000000" stroke="none" 
	d="
M96.000000,107.000000 
	C64.000000,107.000000 32.500008,107.000000 1.000009,107.000000 
	C1.000006,71.666672 1.000006,36.333351 1.000003,1.000018 
	C58.666653,1.000012 116.333305,1.000012 173.999969,1.000006 
	C173.999969,36.333317 173.999969,71.666634 173.999985,106.999969 
	C148.166672,107.000000 122.333336,107.000000 96.000000,107.000000 
M71.392914,79.770096 
	C70.584747,76.900070 69.493652,74.073837 69.040863,71.148804 
	C68.489563,67.587494 66.789795,65.879013 63.177818,65.642860 
	C61.411816,65.527397 59.691509,64.713013 57.577599,64.108292 
	C58.372795,62.972019 58.556129,62.400356 58.926678,62.225559 
	C70.163750,56.924599 77.569229,48.493694 80.205093,35.449944 
	C74.739914,35.449944 69.146614,35.449944 62.513412,35.449944 
	C64.066818,34.077568 64.754005,33.185863 65.659935,32.715050 
	C73.020218,28.889917 80.697632,28.787758 88.471107,31.142086 
	C97.239403,33.797703 97.559059,34.537399 94.587845,43.172924 
	C94.263901,44.114437 93.587700,45.198986 93.813385,46.012249 
	C94.338791,47.905514 94.846527,50.209068 96.197365,51.390804 
	C100.033844,54.747021 104.234192,57.702797 108.416084,60.638432 
	C109.541618,61.428547 111.333839,62.213406 112.409180,61.834545 
	C113.284081,61.526302 114.130569,59.396145 113.970787,58.211319 
	C113.442520,54.294006 113.077713,50.168091 111.534019,46.605927 
	C104.054466,29.346312 84.272545,20.689947 67.071915,26.802643 
	C49.096291,33.190750 39.391411,51.568573 44.173355,70.164917 
	C47.680252,83.802765 62.017326,95.733658 75.250633,95.918343 
	C76.858681,95.940788 78.474358,95.415337 80.086502,95.143814 
	C80.154205,94.663734 80.221909,94.183662 80.289612,93.703583 
	C78.663200,92.806419 77.036789,91.909256 76.484573,91.604645 
	C74.637840,87.274651 73.183479,83.864639 71.392914,79.770096 
M81.672119,86.920311 
	C86.159355,89.584976 91.029381,91.004913 95.935303,88.854042 
	C99.957619,87.090569 102.540398,87.879044 105.530708,90.880661 
	C107.659904,93.017906 110.819664,94.128464 113.519493,95.697220 
	C115.375465,91.147728 111.113884,89.527763 108.980255,87.386009 
	C105.969536,84.363800 105.363182,81.878754 106.926407,77.830322 
	C109.646004,70.787117 106.472183,62.615719 100.255920,58.623699 
	C92.678429,53.757530 82.679428,55.332352 77.399818,62.223484 
	C71.585129,69.813026 73.081650,79.749649 81.672119,86.920311 
z"/>
<path fill="#767F90" opacity="1.000000" stroke="none" 
	d="
M71.561020,80.112366 
	C73.183479,83.864639 74.637840,87.274651 76.484573,91.604645 
	C77.036789,91.909256 78.663200,92.806419 80.289612,93.703583 
	C80.221909,94.183662 80.154205,94.663734 80.086502,95.143814 
	C78.474358,95.415337 76.858681,95.940788 75.250633,95.918343 
	C62.017326,95.733658 47.680252,83.802765 44.173355,70.164917 
	C39.391411,51.568573 49.096291,33.190750 67.071915,26.802643 
	C84.272545,20.689947 104.054466,29.346312 111.534019,46.605927 
	C113.077713,50.168091 113.442520,54.294006 113.970787,58.211319 
	C114.130569,59.396145 113.284081,61.526302 112.409180,61.834545 
	C111.333839,62.213406 109.541618,61.428547 108.416084,60.638432 
	C104.234192,57.702797 100.033844,54.747021 96.197365,51.390804 
	C94.846527,50.209068 94.338791,47.905514 93.813385,46.012249 
	C93.587700,45.198986 94.263901,44.114437 94.587845,43.172924 
	C97.559059,34.537399 97.239403,33.797703 88.471107,31.142086 
	C80.697632,28.787758 73.020218,28.889917 65.659935,32.715050 
	C64.754005,33.185863 64.066818,34.077568 62.513412,35.449944 
	C69.146614,35.449944 74.739914,35.449944 80.205093,35.449944 
	C77.569229,48.493694 70.163750,56.924599 58.926678,62.225559 
	C58.556129,62.400356 58.372795,62.972019 57.577599,64.108292 
	C59.691509,64.713013 61.411816,65.527397 63.177818,65.642860 
	C66.789795,65.879013 68.489563,67.587494 69.040863,71.148804 
	C69.493652,74.073837 70.584747,76.900070 71.561020,80.112366 
M49.765411,49.450302 
	C49.197010,51.353992 48.310532,53.228104 48.130112,55.167877 
	C47.809486,58.615047 51.133900,60.901855 54.044949,59.185474 
	C58.882454,56.333237 63.718719,53.408024 68.198456,50.038807 
	C73.188423,46.285851 73.142334,44.984699 69.280418,38.965973 
	C68.068039,39.729397 66.937187,40.810802 65.609711,41.174450 
	C64.257835,41.544785 62.058266,41.820988 61.362885,41.077991 
	C58.013458,37.499237 55.819386,39.388283 53.810787,42.298389 
	C52.401810,44.339756 51.281475,46.580349 49.765411,49.450302 
M60.183689,81.283356 
	C62.365471,87.549461 64.314857,89.041672 70.285736,88.232162 
	C67.934555,82.804901 65.834152,77.516617 63.275707,72.460091 
	C62.820137,71.559700 60.223907,71.003105 59.067135,71.451439 
	C58.268768,71.760857 57.805969,74.134117 57.987988,75.477371 
	C58.225250,77.228317 59.248997,78.872696 60.183689,81.283356 
M101.541443,40.224430 
	C95.897240,46.916821 98.173302,47.912380 109.348389,51.522259 
	C106.980560,47.784637 104.612732,44.047016 101.541443,40.224430 
M53.591454,69.027069 
	C52.267761,67.311691 50.944069,65.596313 49.620377,63.880939 
	C48.997784,64.261833 48.375191,64.642723 47.752598,65.023621 
	C48.431412,67.295761 49.110222,69.567902 49.990978,72.515999 
	C51.577286,71.079048 52.390026,70.342834 53.591454,69.027069 
z"/>
<path fill="#757D8D" opacity="1.000000" stroke="none" 
	d="
M81.365433,86.719215 
	C73.081650,79.749649 71.585129,69.813026 77.399818,62.223484 
	C82.679428,55.332352 92.678429,53.757530 100.255920,58.623699 
	C106.472183,62.615719 109.646004,70.787117 106.926407,77.830322 
	C105.363182,81.878754 105.969536,84.363800 108.980255,87.386009 
	C111.113884,89.527763 115.375465,91.147728 113.519493,95.697220 
	C110.819664,94.128464 107.659904,93.017906 105.530708,90.880661 
	C102.540398,87.879044 99.957619,87.090569 95.935303,88.854042 
	C91.029381,91.004913 86.159355,89.584976 81.365433,86.719215 
M81.802124,64.436073 
	C77.339035,69.728790 77.207161,76.070755 81.466118,80.595009 
	C86.591209,86.039360 92.493645,86.773262 97.900612,82.638474 
	C103.819756,78.112000 105.147285,70.709084 100.953911,65.612022 
	C95.561943,59.058056 88.884499,58.447159 81.802124,64.436073 
z"/>
<path fill="#272D38" opacity="1.000000" stroke="none" 
	d="
M49.898827,49.091141 
	C51.281475,46.580349 52.401810,44.339756 53.810787,42.298389 
	C55.819386,39.388283 58.013458,37.499237 61.362885,41.077991 
	C62.058266,41.820988 64.257835,41.544785 65.609711,41.174450 
	C66.937187,40.810802 68.068039,39.729397 69.280418,38.965973 
	C73.142334,44.984699 73.188423,46.285851 68.198456,50.038807 
	C63.718719,53.408024 58.882454,56.333237 54.044949,59.185474 
	C51.133900,60.901855 47.809486,58.615047 48.130112,55.167877 
	C48.310532,53.228104 49.197010,51.353992 49.898827,49.091141 
z"/>
<path fill="#29303C" opacity="1.000000" stroke="none" 
	d="
M60.059002,80.923141 
	C59.248997,78.872696 58.225250,77.228317 57.987988,75.477371 
	C57.805969,74.134117 58.268768,71.760857 59.067135,71.451439 
	C60.223907,71.003105 62.820137,71.559700 63.275707,72.460091 
	C65.834152,77.516617 67.934555,82.804901 70.285736,88.232162 
	C64.314857,89.041672 62.365471,87.549461 60.059002,80.923141 
z"/>
<path fill="#2C3440" opacity="1.000000" stroke="none" 
	d="
M101.893173,40.266914 
	C104.612732,44.047016 106.980560,47.784637 109.348389,51.522259 
	C98.173302,47.912380 95.897240,46.916821 101.893173,40.266914 
z"/>
<path fill="#2D3443" opacity="1.000000" stroke="none" 
	d="
M53.397110,69.316841 
	C52.390026,70.342834 51.577286,71.079048 49.990978,72.515999 
	C49.110222,69.567902 48.431412,67.295761 47.752598,65.023621 
	C48.375191,64.642723 48.997784,64.261833 49.620377,63.880939 
	C50.944069,65.596313 52.267761,67.311691 53.397110,69.316841 
z"/>
<path fill="#262B35" opacity="1.000000" stroke="none" 
	d="
M82.077316,64.173157 
	C88.884499,58.447159 95.561943,59.058056 100.953911,65.612022 
	C105.147285,70.709084 103.819756,78.112000 97.900612,82.638474 
	C92.493645,86.773262 86.591209,86.039360 81.466118,80.595009 
	C77.207161,76.070755 77.339035,69.728790 82.077316,64.173157 
z"/>
</svg>