<svg version="1.1" id="Layer_1" xmlns="http://www.w3.org/2000/svg" xmlns:xlink="http://www.w3.org/1999/xlink" x="0px" y="0px"
	 width="100%" viewBox="0 0 74 74" enable-background="new 0 0 74 74" xml:space="preserve">
<path fill="#232832" opacity="1.000000" stroke="none" 
	d="
M1.000000,37.000000 
	C1.000000,25.036568 1.000000,13.073134 1.000000,1.054851 
	C25.554832,1.054851 50.109810,1.054851 75.000000,1.054851 
	C75.000000,12.018629 75.000000,23.040655 74.659920,34.473186 
	C73.208595,34.590103 72.097359,34.296516 70.996887,33.998161 
	C71.007660,33.993389 71.001274,34.016453 70.849121,33.812607 
	C70.423447,33.410332 70.149918,33.211895 69.597961,32.874027 
	C68.183487,31.530895 67.047447,30.327200 65.825851,28.778950 
	C61.933590,23.907560 58.304413,19.210989 54.225323,14.944571 
	C52.768093,13.420419 50.222130,12.937198 48.014015,11.689139 
	C46.925575,10.884981 45.996231,10.370537 45.023170,9.513475 
	C43.001854,7.833178 41.024254,6.495497 38.761349,5.159183 
	C38.292725,5.211275 38.109406,5.262001 37.559422,5.281083 
	C35.798485,5.844264 34.404217,6.439087 32.709602,7.139822 
	C31.311260,7.867787 30.213263,8.489841 28.771133,9.182222 
	C27.305389,9.889112 26.010599,10.339269 25.091166,11.193457 
	C20.284164,15.659336 15.409409,20.072901 10.895329,24.824898 
	C8.588538,27.253267 6.987503,30.352060 4.952183,33.394173 
	C4.534825,34.086178 4.232764,34.531845 3.770441,35.147789 
	C3.417786,35.576206 3.308628,35.865738 3.310288,36.190193 
	C3.337872,36.193726 3.350251,36.247620 3.044703,36.297569 
	C2.159437,36.565014 1.579718,36.782509 1.000000,37.000000 
z"/>
<path fill="#232832" opacity="1.000000" stroke="none" 
	d="
M23.000000,75.000000 
	C15.726610,75.000000 8.453220,75.000000 1.000000,75.000000 
	C1.000000,64.646332 1.000000,54.291824 1.395854,43.463387 
	C4.192502,43.659000 6.593295,44.328541 9.027330,45.287750 
	C9.435533,46.452381 9.810494,47.327339 10.269848,48.650024 
	C10.286580,54.668091 10.218922,60.238438 9.972437,66.027557 
	C9.848902,67.499756 9.904193,68.753166 10.121363,70.196136 
	C10.516568,70.641937 10.803972,70.799652 11.331949,70.930862 
	C11.518444,71.002892 11.889724,71.151299 12.269724,71.316299 
	C16.087339,71.701309 19.524954,71.921326 22.967434,72.498657 
	C22.981531,73.570656 22.990765,74.285332 23.000000,75.000000 
z"/>
<path fill="#232832" opacity="1.000000" stroke="none" 
	d="
M75.000000,43.000000 
	C75.000000,53.558002 75.000000,64.116005 75.000000,75.000000 
	C70.990318,75.000000 66.971825,75.000000 62.488266,74.653122 
	C62.058537,73.613045 62.093861,72.919853 62.492569,72.162170 
	C68.445396,70.397903 69.299736,68.527664 66.107872,64.574150 
	C66.115845,63.143719 66.130211,62.104046 66.387451,60.780647 
	C67.091560,56.933453 67.702339,53.381069 67.967613,49.803074 
	C68.187309,46.839970 68.422005,44.088402 72.254257,43.071915 
	C73.431030,43.042095 74.215515,43.021046 75.000000,43.000000 
z"/>
<path fill="#0F2E4E" opacity="1.000000" stroke="none" 
	d="
M8.994089,44.998085 
	C6.593295,44.328541 4.192502,43.659000 1.395854,42.994728 
	C1.000000,42.555553 1.000000,42.111111 1.175844,41.176285 
	C1.604621,40.494720 1.822192,40.269390 2.342765,40.003304 
	C3.128837,39.943642 3.576546,39.890587 4.383018,39.881500 
	C6.802566,38.918762 8.863350,37.912056 11.156641,37.163132 
	C16.276396,40.084675 17.556456,44.385662 17.041853,49.592083 
	C16.863304,51.398525 17.019062,53.238174 17.024803,55.062649 
	C17.052151,63.754837 17.352976,64.053391 25.974503,64.169205 
	C25.985472,64.394722 26.002703,64.845039 25.553032,64.906555 
	C23.777328,64.987885 22.434923,64.881134 21.128201,65.050194 
	C16.382658,65.664154 14.546456,63.762222 14.925904,58.918736 
	C15.260978,54.641663 14.893241,50.309525 14.886928,45.639442 
	C14.292124,44.284248 13.646214,43.291313 13.000305,42.298378 
	C12.105080,43.180504 11.209855,44.062630 10.094498,44.951855 
	C9.580992,44.973167 9.287566,44.986214 8.994089,44.998085 
z"/>
<path fill="#232930" opacity="1.000000" stroke="none" 
	d="
M55.000000,75.000000 
	C47.979053,75.000000 40.958103,75.000000 33.457062,74.605408 
	C32.949810,73.421768 32.922649,72.632721 32.848259,71.418068 
	C32.716400,70.424759 32.631775,69.857056 32.659851,69.167244 
	C32.997463,68.798737 33.171360,68.519890 33.551167,67.913750 
	C34.310802,66.430733 34.813519,65.242561 35.647461,64.129257 
	C37.074001,65.621613 38.093327,67.107292 39.286484,68.436981 
	C40.429897,69.711235 41.753742,70.823593 43.435295,72.030220 
	C46.930252,72.328812 49.988213,72.604279 53.232162,73.100067 
	C53.945438,73.880249 54.472721,74.440125 55.000000,75.000000 
z"/>
<path fill="#1B2B38" opacity="1.000000" stroke="none" 
	d="
M32.895493,71.843674 
	C32.922649,72.632721 32.949810,73.421768 32.988483,74.605408 
	C29.969406,75.000000 26.938814,75.000000 23.454109,75.000000 
	C22.990765,74.285332 22.981531,73.570656 23.423185,72.471344 
	C26.881212,72.005699 29.888353,71.924690 32.895493,71.843674 
z"/>
<path fill="#102E55" opacity="1.000000" stroke="none" 
	d="
M75.000000,42.555836 
	C74.215515,43.021046 73.431030,43.042095 72.388443,42.838711 
	C72.416000,42.168335 72.701660,41.722393 73.068222,40.857059 
	C73.014206,39.606461 72.879280,38.775257 72.619217,37.659225 
	C71.991417,36.250580 71.488762,35.126755 70.986115,34.002930 
	C72.097359,34.296516 73.208595,34.590103 74.659920,34.941845 
	C75.000000,37.370556 75.000000,39.741116 75.000000,42.555836 
z"/>
<path fill="#1D2B3A" opacity="1.000000" stroke="none" 
	d="
M55.437469,75.000000 
	C54.472721,74.440125 53.945438,73.880249 53.626968,73.045303 
	C56.564400,72.523766 59.293022,72.277298 62.048126,72.080002 
	C62.074615,72.129181 62.129185,72.226662 62.129185,72.226662 
	C62.093861,72.919853 62.058537,73.613045 62.011604,74.653122 
	C59.958313,75.000000 57.916626,75.000000 55.437469,75.000000 
z"/>
<path fill="#08447F" opacity="1.000000" stroke="none" 
	d="
M2.004400,40.009914 
	C1.822192,40.269390 1.604621,40.494720 1.175844,40.842957 
	C1.000000,39.933376 1.000000,38.866749 1.000000,37.400063 
	C1.579718,36.782509 2.159437,36.565014 2.991208,36.575577 
	C3.104539,37.151878 2.965817,37.500118 2.639265,38.077923 
	C2.302425,38.874962 2.153413,39.442436 2.004400,40.009914 
z"/>
<path fill="#217BCE" opacity="1.000000" stroke="none" 
	d="
M2.827094,37.848362 
	C2.965817,37.500118 3.104539,37.151878 3.296756,36.525627 
	C3.350251,36.247620 3.337872,36.193726 3.508512,36.046883 
	C3.888386,35.626698 3.972237,35.319187 3.930702,34.977509 
	C4.232764,34.531845 4.534825,34.086178 5.298026,33.329514 
	C10.147468,28.857327 14.652796,24.811102 18.888102,20.499626 
	C22.459902,16.863586 25.718199,12.919582 29.115263,9.111893 
	C30.213263,8.489841 31.311260,7.867787 32.624489,7.448280 
	C32.904995,9.453074 29.125668,11.465691 32.984138,13.332680 
	C31.944103,14.775321 31.055191,15.937400 29.987171,17.383167 
	C23.513422,24.079687 17.218779,30.492519 10.924134,36.905350 
	C8.863350,37.912056 6.802566,38.918762 4.244022,39.626808 
	C3.439873,38.834885 3.133484,38.341621 2.827094,37.848362 
z"/>
<path fill="#1F7BD2" opacity="1.000000" stroke="none" 
	d="
M70.996887,33.998161 
	C71.488762,35.126755 71.991417,36.250580 72.428848,37.875389 
	C71.593910,39.223671 70.824196,40.070969 69.743042,40.835617 
	C68.003700,39.470596 66.575806,38.188221 65.005852,36.638947 
	C64.212349,35.899467 63.560898,35.426891 62.819935,34.766293 
	C62.565975,34.341267 62.347157,34.176437 61.930664,33.769829 
	C58.883774,30.912802 55.980194,28.369738 52.979645,25.621153 
	C52.695621,25.160196 52.448948,24.992413 52.088665,24.570854 
	C50.017441,21.841324 48.000206,19.453220 46.057693,16.734068 
	C46.789951,15.252954 47.447483,14.102890 48.314865,13.046984 
	C48.789291,13.326284 48.956821,13.576424 49.193863,14.081459 
	C49.602722,14.504739 49.845016,14.738122 50.379551,15.126360 
	C55.751663,19.895313 60.831535,24.509411 65.911407,29.123505 
	C67.047447,30.327200 68.183487,31.530895 69.722839,33.105652 
	C70.417862,33.656628 70.709572,33.836540 71.001274,34.016453 
	C71.001274,34.016453 71.007660,33.993389 70.996887,33.998161 
z"/>
<path fill="#1E7BD4" opacity="1.000000" stroke="none" 
	d="
M33.135265,13.052118 
	C29.125668,11.465691 32.904995,9.453074 32.924835,7.342368 
	C34.404217,6.439087 35.798485,5.844264 37.698555,5.358903 
	C38.542660,5.524800 38.823425,5.421283 39.046654,5.157815 
	C41.024254,6.495497 43.001854,7.833178 44.914864,9.819773 
	C43.946312,11.313951 43.042358,12.159216 41.898842,12.720533 
	C38.651672,10.339287 35.796936,10.358870 33.135265,13.052118 
z"/>
<path fill="#122D49" opacity="1.000000" stroke="none" 
	d="
M28.771133,9.182222 
	C25.718199,12.919582 22.459902,16.863586 18.888102,20.499626 
	C14.652796,24.811102 10.147468,28.857327 5.413323,33.083172 
	C6.987503,30.352060 8.588538,27.253267 10.895329,24.824898 
	C15.409409,20.072901 20.284164,15.659336 25.091166,11.193457 
	C26.010599,10.339269 27.305389,9.889112 28.771133,9.182222 
z"/>
<path fill="#112D4B" opacity="1.000000" stroke="none" 
	d="
M65.825851,28.778950 
	C60.831535,24.509411 55.751663,19.895313 50.267254,14.890765 
	C49.584244,14.297397 49.305771,14.094479 49.027298,13.891562 
	C48.956821,13.576424 48.789291,13.326284 48.303215,12.801470 
	C48.081715,12.461797 48.173111,11.978853 48.173111,11.978853 
	C50.222130,12.937198 52.768093,13.420419 54.225323,14.944571 
	C58.304413,19.210989 61.933590,23.907560 65.825851,28.778950 
z"/>
<path fill="#227ACC" opacity="1.000000" stroke="none" 
	d="
M48.014015,11.689140 
	C48.173111,11.978853 48.081715,12.461797 48.093365,12.707312 
	C47.447483,14.102890 46.789951,15.252954 45.773933,16.587662 
	C44.323101,15.516363 43.230755,14.260423 42.138405,13.004481 
	C43.042358,12.159216 43.946312,11.313951 44.958576,10.162390 
	C45.996231,10.370537 46.925575,10.884981 48.014015,11.689140 
z"/>
<path fill="#102E55" opacity="1.000000" stroke="none" 
	d="
M70.849121,33.812607 
	C70.709572,33.836540 70.417862,33.656628 70.001282,33.245087 
	C70.149918,33.211895 70.423447,33.410332 70.849121,33.812607 
z"/>
<path fill="#08447F" opacity="1.000000" stroke="none" 
	d="
M3.770441,35.147789 
	C3.972237,35.319187 3.888386,35.626698 3.480927,36.043350 
	C3.308628,35.865738 3.417786,35.576206 3.770441,35.147789 
z"/>
<path fill="#16609D" opacity="1.000000" stroke="none" 
	d="
M38.761349,5.159183 
	C38.823425,5.421283 38.542660,5.524800 38.065224,5.390546 
	C38.109406,5.262001 38.292725,5.211275 38.761349,5.159183 
z"/>
<path fill="#227DD1" opacity="1.000000" stroke="none" 
	d="
M10.314631,44.944759 
	C11.209855,44.062630 12.105080,43.180504 13.000305,42.298378 
	C13.646214,43.291313 14.292124,44.284248 14.567669,45.802559 
	C13.497015,47.567455 12.180746,48.815834 12.198415,50.045044 
	C12.298090,56.979301 12.718127,63.908962 12.743443,70.915337 
	C12.268517,71.044090 12.079121,71.097694 11.889724,71.151299 
	C11.889724,71.151299 11.518444,71.002892 11.256866,70.683495 
	C10.924129,70.207314 10.852969,70.050529 10.759388,69.479446 
	C10.541732,67.979691 10.346498,66.894234 10.151264,65.808784 
	C10.218922,60.238438 10.286580,54.668091 10.395201,48.253677 
	C10.395653,46.587997 10.355143,45.766376 10.314631,44.944759 
z"/>
<path fill="#03315B" opacity="1.000000" stroke="none" 
	d="
M12.269724,71.316299 
	C12.079121,71.097694 12.268517,71.044090 13.204710,70.978760 
	C16.722929,70.969337 19.515314,71.186882 22.260485,70.919571 
	C25.709585,70.583717 29.120028,69.850876 32.547150,69.289352 
	C32.631775,69.857056 32.716400,70.424759 32.848259,71.418076 
	C29.888353,71.924690 26.881212,72.005699 23.418322,72.114021 
	C19.524954,71.921326 16.087339,71.701309 12.269724,71.316299 
z"/>
<path fill="#0C2F54" opacity="1.000000" stroke="none" 
	d="
M9.972438,66.027557 
	C10.346498,66.894234 10.541732,67.979691 10.553497,69.504784 
	C10.370030,69.944427 9.959484,70.006584 9.959484,70.006584 
	C9.904193,68.753166 9.848902,67.499756 9.972438,66.027557 
z"/>
<path fill="#0C2F54" opacity="1.000000" stroke="none" 
	d="
M10.094499,44.951855 
	C10.355143,45.766376 10.395653,46.587997 10.310810,47.805958 
	C9.810494,47.327339 9.435533,46.452381 9.027330,45.287750 
	C9.287566,44.986214 9.580992,44.973167 10.094499,44.951855 
z"/>
<path fill="#0E4B83" opacity="1.000000" stroke="none" 
	d="
M10.121363,70.196136 
	C9.959484,70.006584 10.370030,69.944427 10.575920,69.919083 
	C10.852969,70.050529 10.924129,70.207314 11.070372,70.611465 
	C10.803972,70.799652 10.516568,70.641937 10.121363,70.196136 
z"/>
<path fill="#1B2A3E" opacity="1.000000" stroke="none" 
	d="
M65.147903,36.905846 
	C66.575806,38.188221 68.003700,39.470596 70.087372,40.987602 
	C71.491203,41.240303 72.239265,41.258377 72.987320,41.276451 
	C72.701660,41.722393 72.416000,42.168335 71.996155,42.847481 
	C68.422005,44.088402 68.187309,46.839970 67.967613,49.803074 
	C67.702339,53.381069 67.091560,56.933453 66.361771,60.307110 
	C65.727814,54.411110 65.362404,48.704926 64.881927,42.710373 
	C64.161964,41.582623 63.557072,40.743240 62.955254,39.544682 
	C62.967335,38.467182 62.976349,37.748856 63.345917,37.009407 
	C64.186951,36.960804 64.667427,36.933327 65.147903,36.905846 
z"/>
<path fill="#0C2E56" opacity="1.000000" stroke="none" 
	d="
M64.997002,42.998737 
	C65.362404,48.704926 65.727814,54.411110 66.118896,60.590836 
	C66.130211,62.104046 66.115845,63.143719 66.038696,64.917770 
	C65.538155,66.708160 65.100403,67.764160 64.652634,68.363968 
	C64.725700,60.084648 64.808784,52.261539 64.915955,44.078346 
	C64.959015,43.478424 64.978004,43.238583 64.997002,42.998737 
z"/>
<path fill="#1B2A3E" opacity="1.000000" stroke="none" 
	d="
M64.662651,68.820168 
	C65.100403,67.764160 65.538155,66.708160 66.045090,65.308533 
	C69.299736,68.527664 68.445396,70.397903 62.492569,72.162170 
	C62.129185,72.226662 62.074615,72.129181 62.032810,71.794991 
	C61.972767,71.271523 61.954525,71.082237 61.986229,70.692276 
	C62.036167,70.491600 62.153374,70.094948 62.440792,70.049240 
	C63.373024,69.609077 64.017838,69.214622 64.662651,68.820168 
z"/>
<path fill="#232933" opacity="1.000000" stroke="none" 
	d="
M62.985359,37.030533 
	C62.976349,37.748856 62.967335,38.467182 62.661919,39.618813 
	C61.592598,41.076160 60.819675,42.100201 60.020470,43.423214 
	C59.860943,44.096901 59.727703,44.471615 59.441208,44.975780 
	C59.383095,45.787510 59.478237,46.469788 59.671288,47.481407 
	C59.711254,48.488861 59.653309,49.166965 59.382725,50.064770 
	C59.311371,51.908726 59.452660,53.532982 59.690723,55.572880 
	C59.774918,58.521908 59.762341,61.055298 59.334084,63.663887 
	C55.000549,63.807938 51.082691,63.876785 47.110565,63.485771 
	C47.041241,59.197296 47.711018,55.193382 46.790321,51.596592 
	C46.078205,48.814663 43.751961,46.061096 41.412632,44.226727 
	C40.038330,43.149090 37.235332,43.893444 34.750893,43.672466 
	C29.250742,43.332310 26.518198,45.444347 26.168793,50.462486 
	C25.857082,54.939274 26.013626,59.448673 25.963533,63.943680 
	C17.352976,64.053391 17.052151,63.754837 17.024803,55.062649 
	C17.019062,53.238174 16.863304,51.398525 17.041853,49.592083 
	C17.556456,44.385662 16.276396,40.084675 11.156641,37.163132 
	C17.218779,30.492519 23.513422,24.079687 30.326427,17.303371 
	C38.692635,13.360780 38.581383,13.470204 44.903641,19.897970 
	C46.925781,21.953856 49.708130,23.262009 52.142654,24.912279 
	C52.448948,24.992413 52.695621,25.160196 53.079327,25.954346 
	C56.208641,29.023304 59.141308,31.553547 62.073971,34.083790 
	C62.347157,34.176437 62.565975,34.341267 62.816536,35.113670 
	C62.930222,36.109554 62.957790,36.570045 62.985359,37.030533 
z"/>
<path fill="#197EDD" opacity="1.000000" stroke="none" 
	d="
M35.074955,43.818275 
	C37.235332,43.893444 40.038330,43.149090 41.412632,44.226727 
	C43.751961,46.061096 46.078205,48.814663 46.790321,51.596592 
	C47.711018,55.193382 47.041241,59.197296 47.180664,63.875950 
	C52.107426,67.029739 57.348972,66.550720 59.749760,63.588684 
	C59.762341,61.055298 59.774918,58.521908 59.826733,55.141754 
	C59.775768,52.811680 59.685570,51.328373 59.595367,49.845070 
	C59.653309,49.166965 59.711254,48.488861 59.764133,47.100883 
	C59.704197,45.876114 59.649330,45.361221 59.594467,44.846325 
	C59.727703,44.471615 59.860943,44.096901 60.393204,43.435066 
	C62.158772,43.578106 63.525326,44.008266 64.891876,44.438427 
	C64.808784,52.261539 64.725700,60.084648 64.652634,68.363968 
	C64.017838,69.214622 63.373024,69.609077 62.214500,70.094940 
	C61.405807,70.286758 61.140198,70.438568 60.450909,70.658257 
	C56.362183,70.675476 52.726513,70.676208 48.954079,70.597710 
	C48.497189,70.424576 48.195602,70.465019 47.558716,70.645691 
	C46.497658,70.629631 45.790440,70.607704 44.933754,70.523315 
	C44.439934,70.435860 44.153908,70.556343 43.723930,70.867264 
	C43.521641,70.912209 43.107208,70.914925 42.900547,70.549522 
	C42.407700,65.131210 42.121513,60.078304 41.894360,54.607632 
	C42.511841,50.389576 40.983635,48.870430 37.049732,48.887493 
	C33.187187,48.904243 32.870453,50.990158 32.983555,53.941196 
	C33.165707,58.693985 33.198414,63.452499 33.294250,68.208595 
	C33.171360,68.519890 32.997463,68.798737 32.659851,69.167244 
	C29.120028,69.850876 25.709585,70.583717 22.260485,70.919571 
	C19.515314,71.186882 16.722929,70.969337 13.490239,70.903610 
	C12.718127,63.908962 12.298090,56.979301 12.198415,50.045044 
	C12.180746,48.815834 13.497015,47.567455 14.516564,46.164818 
	C14.893241,50.309525 15.260978,54.641663 14.925904,58.918736 
	C14.546456,63.762222 16.382658,65.664154 21.128201,65.050194 
	C22.434923,64.881134 23.777328,64.987885 25.953121,64.918007 
	C27.530771,63.595993 28.739637,62.377426 28.887915,61.041168 
	C29.211498,58.125069 29.219072,55.128513 28.949352,52.202297 
	C28.513212,47.470539 30.389557,44.682621 35.074955,43.818275 
z"/>
<path fill="#0B2F55" opacity="1.000000" stroke="none" 
	d="
M34.750893,43.672470 
	C30.389557,44.682621 28.513212,47.470539 28.949352,52.202297 
	C29.219072,55.128513 29.211498,58.125069 28.887915,61.041168 
	C28.739637,62.377426 27.530771,63.595993 26.402792,64.856491 
	C26.002703,64.845039 25.985472,64.394722 25.974503,64.169205 
	C26.013626,59.448673 25.857082,54.939274 26.168793,50.462486 
	C26.518198,45.444347 29.250742,43.332310 34.750893,43.672470 
z"/>
<path fill="#297CC4" opacity="1.000000" stroke="none" 
	d="
M2.639265,38.077923 
	C3.133484,38.341621 3.439873,38.834885 3.885259,39.582840 
	C3.576546,39.890587 3.128837,39.943642 2.342765,40.003304 
	C2.153413,39.442436 2.302425,38.874962 2.639265,38.077923 
z"/>
<path fill="#1F2A39" opacity="1.000000" stroke="none" 
	d="
M41.835327,55.025398 
	C42.121513,60.078304 42.407700,65.131210 42.872093,70.822205 
	C43.032963,71.642563 43.015629,71.824829 42.998291,72.007095 
	C41.753742,70.823593 40.429897,69.711235 39.286484,68.436981 
	C38.093327,67.107292 37.074001,65.621613 35.590126,63.667225 
	C35.177994,59.449921 35.154415,55.769524 35.527397,52.074402 
	C37.250496,52.063168 38.577038,52.066662 39.990753,52.360615 
	C40.663727,53.442516 41.249527,54.233955 41.835327,55.025398 
z"/>
<path fill="#0A3055" opacity="1.000000" stroke="none" 
	d="
M35.130836,52.089127 
	C35.154415,55.769524 35.177994,59.449921 35.258904,63.592354 
	C34.813519,65.242561 34.310802,66.430733 33.551167,67.913750 
	C33.198414,63.452499 33.165707,58.693985 32.983555,53.941196 
	C32.870453,50.990158 33.187187,48.904243 37.049732,48.887493 
	C40.983635,48.870430 42.511841,50.389576 41.894360,54.607632 
	C41.249527,54.233955 40.663727,53.442516 39.810150,52.115150 
	C38.071865,51.749187 36.601349,51.919159 35.130836,52.089127 
z"/>
<path fill="#05325C" opacity="1.000000" stroke="none" 
	d="
M43.435295,72.030220 
	C43.015629,71.824829 43.032963,71.642563 43.078754,71.187607 
	C43.107208,70.914925 43.521641,70.912209 44.018417,70.833145 
	C44.704533,70.697983 44.893879,70.641876 45.083221,70.585777 
	C45.790440,70.607704 46.497658,70.629631 47.852165,70.696205 
	C48.696587,70.719543 48.893715,70.698242 49.090843,70.676941 
	C52.726513,70.676208 56.362183,70.675476 60.703472,70.745148 
	C61.584827,70.841354 61.760559,70.867157 61.936287,70.892960 
	C61.954525,71.082237 61.972767,71.271523 62.006325,71.745819 
	C59.293022,72.277298 56.564400,72.523766 53.440975,72.824989 
	C49.988213,72.604279 46.930252,72.328812 43.435295,72.030220 
z"/>
<path fill="#3572B4" opacity="1.000000" stroke="none" 
	d="
M73.068222,40.857059 
	C72.239265,41.258377 71.491203,41.240303 70.398819,41.070248 
	C70.824196,40.070969 71.593910,39.223671 72.553986,38.160210 
	C72.879280,38.775257 73.014206,39.606461 73.068222,40.857059 
z"/>
<path fill="#0D2E4F" opacity="1.000000" stroke="none" 
	d="
M52.088665,24.570854 
	C49.708130,23.262009 46.925781,21.953856 44.903641,19.897970 
	C38.581383,13.470204 38.692635,13.360780 30.505535,17.019684 
	C31.055191,15.937400 31.944103,14.775321 32.984138,13.332680 
	C35.796936,10.358870 38.651672,10.339287 41.898842,12.720533 
	C43.230755,14.260423 44.323101,15.516363 45.699211,16.918709 
	C48.000206,19.453220 50.017441,21.841324 52.088665,24.570854 
z"/>
<path fill="#0B3055" opacity="1.000000" stroke="none" 
	d="
M61.930664,33.769829 
	C59.141308,31.553547 56.208641,29.023304 53.176296,26.159866 
	C55.980194,28.369738 58.883774,30.912802 61.930664,33.769829 
z"/>
<path fill="#0B3055" opacity="1.000000" stroke="none" 
	d="
M63.345917,37.009407 
	C62.957790,36.570045 62.930222,36.109554 62.906052,35.301689 
	C63.560898,35.426891 64.212349,35.899467 65.005852,36.638947 
	C64.667427,36.933327 64.186951,36.960804 63.345917,37.009407 
z"/>
<path fill="#227ACC" opacity="1.000000" stroke="none" 
	d="
M49.193863,14.081458 
	C49.305771,14.094479 49.584244,14.297397 49.975014,14.735910 
	C49.845016,14.738122 49.602722,14.504739 49.193863,14.081458 
z"/>
<path fill="#0F2D49" opacity="1.000000" stroke="none" 
	d="
M64.915955,44.078346 
	C63.525326,44.008266 62.158772,43.578106 60.419487,43.136093 
	C60.819675,42.100201 61.592598,41.076160 62.658852,39.977989 
	C63.557072,40.743240 64.161964,41.582623 64.881927,42.710373 
	C64.978004,43.238583 64.959015,43.478424 64.915955,44.078346 
z"/>
<path fill="#1B64AA" opacity="1.000000" stroke="none" 
	d="
M61.986229,70.692276 
	C61.760559,70.867157 61.584827,70.841354 61.156528,70.728653 
	C61.140198,70.438568 61.405807,70.286758 61.927078,70.140640 
	C62.153374,70.094948 62.036167,70.491600 61.986229,70.692276 
z"/>
<path fill="#00366B" opacity="1.000000" stroke="none" 
	d="
M59.334084,63.663887 
	C57.348972,66.550720 52.107426,67.029739 47.234936,64.335815 
	C51.082691,63.876785 55.000549,63.807938 59.334084,63.663887 
z"/>
<path fill="#0F2D49" opacity="1.000000" stroke="none" 
	d="
M59.382725,50.064770 
	C59.685570,51.328373 59.775768,52.811680 59.729958,54.726112 
	C59.452660,53.532982 59.311371,51.908726 59.382725,50.064770 
z"/>
<path fill="#0F2D49" opacity="1.000000" stroke="none" 
	d="
M59.441208,44.975780 
	C59.649330,45.361221 59.704197,45.876114 59.666222,46.771538 
	C59.478237,46.469788 59.383095,45.787510 59.441208,44.975780 
z"/>
<path fill="#1B64AA" opacity="1.000000" stroke="none" 
	d="
M48.954079,70.597710 
	C48.893715,70.698242 48.696587,70.719543 48.206001,70.690338 
	C48.195602,70.465019 48.497189,70.424576 48.954079,70.597710 
z"/>
<path fill="#1B64AA" opacity="1.000000" stroke="none" 
	d="
M44.933754,70.523315 
	C44.893879,70.641876 44.704533,70.697983 44.220703,70.788193 
	C44.153908,70.556343 44.439934,70.435860 44.933754,70.523315 
z"/>
<path fill="#162D44" opacity="1.000000" stroke="none" 
	d="
M35.527397,52.074402 
	C36.601349,51.919159 38.071865,51.749187 39.722977,51.824684 
	C38.577038,52.066662 37.250496,52.063168 35.527397,52.074402 
z"/>
</svg>