<svg version="1.1" id="Layer_1" xmlns="http://www.w3.org/2000/svg" xmlns:xlink="http://www.w3.org/1999/xlink" x="0px" y="0px"
	 width="100%" viewBox="0 0 103 93" enable-background="new 0 0 103 93" xml:space="preserve">
<path fill="#252932" opacity="1.000000" stroke="none" 
	d="
M67.000000,94.000000 
	C44.666672,94.000000 22.833342,94.000000 1.000009,94.000000 
	C1.000006,63.000008 1.000006,32.000019 1.000003,1.000021 
	C35.333317,1.000014 69.666634,1.000014 103.999969,1.000007 
	C103.999977,31.999979 103.999977,62.999958 103.999985,93.999969 
	C91.833336,94.000000 79.666664,94.000000 67.000000,94.000000 
M17.863546,50.230911 
	C17.024551,52.882824 15.212787,55.725586 15.682684,58.120708 
	C16.005175,59.764484 19.346455,61.373917 21.607428,61.959202 
	C25.850271,63.057529 27.143190,66.219795 24.005909,69.882370 
	C20.730427,73.706284 21.770157,76.614601 25.015282,79.763992 
	C28.121096,82.778183 30.913258,84.406136 34.881584,81.015350 
	C38.957611,77.532539 42.284515,78.893394 42.825592,84.180000 
	C43.228394,88.115562 45.340332,89.817230 49.021358,89.843040 
	C52.683979,89.868736 54.893517,88.266685 55.301010,84.298172 
	C55.847778,78.973297 59.215740,77.478554 63.159595,80.902199 
	C67.015244,84.249260 69.892677,83.070129 73.045952,79.929817 
	C76.158104,76.830467 77.529236,73.930534 74.291725,70.014275 
	C70.822647,65.817886 72.072868,62.705967 77.402000,62.105541 
	C81.267174,61.670059 83.065704,59.641502 83.057800,55.896580 
	C83.050125,52.257671 81.575417,50.027649 77.570450,49.572109 
	C72.105476,48.950500 70.795143,45.808739 74.218307,41.683628 
	C77.172897,38.123169 76.626778,35.287754 73.486664,32.145542 
	C70.284264,28.940998 67.347702,27.207394 63.202709,30.660610 
	C59.062443,34.109890 55.967495,32.818985 55.342064,27.378750 
	C54.888287,23.431641 52.788376,21.858131 49.059425,21.867031 
	C45.293541,21.876019 43.273960,23.598755 42.823048,27.472288 
	C42.199707,32.827019 39.032848,34.133152 34.945484,30.680082 
	C31.340918,27.634888 28.533762,28.425173 25.421181,31.480879 
	C22.182186,34.660694 20.451336,37.536922 23.994839,41.706783 
	C27.440752,45.761806 25.929317,48.960945 20.569756,49.640797 
	C19.910780,49.724388 19.256184,49.842499 17.863546,50.230911 
M83.883614,7.821812 
	C75.720856,9.683262 71.417549,15.873494 73.404175,22.896328 
	C75.134720,29.013906 81.121681,32.884426 87.149475,31.782568 
	C93.209122,30.674885 97.380600,25.462629 97.120201,19.324162 
	C96.835014,12.601672 92.222183,8.330440 83.883614,7.821812 
z"/>
<path fill="#787F90" opacity="1.000000" stroke="none" 
	d="
M18.231552,50.087761 
	C19.256184,49.842499 19.910780,49.724388 20.569756,49.640797 
	C25.929317,48.960945 27.440752,45.761806 23.994839,41.706783 
	C20.451336,37.536922 22.182186,34.660694 25.421181,31.480879 
	C28.533762,28.425173 31.340918,27.634888 34.945484,30.680082 
	C39.032848,34.133152 42.199707,32.827019 42.823048,27.472288 
	C43.273960,23.598755 45.293541,21.876019 49.059425,21.867031 
	C52.788376,21.858131 54.888287,23.431641 55.342064,27.378750 
	C55.967495,32.818985 59.062443,34.109890 63.202709,30.660610 
	C67.347702,27.207394 70.284264,28.940998 73.486664,32.145542 
	C76.626778,35.287754 77.172897,38.123169 74.218307,41.683628 
	C70.795143,45.808739 72.105476,48.950500 77.570450,49.572109 
	C81.575417,50.027649 83.050125,52.257671 83.057800,55.896580 
	C83.065704,59.641502 81.267174,61.670059 77.402000,62.105541 
	C72.072868,62.705967 70.822647,65.817886 74.291725,70.014275 
	C77.529236,73.930534 76.158104,76.830467 73.045952,79.929817 
	C69.892677,83.070129 67.015244,84.249260 63.159595,80.902199 
	C59.215740,77.478554 55.847778,78.973297 55.301010,84.298172 
	C54.893517,88.266685 52.683979,89.868736 49.021358,89.843040 
	C45.340332,89.817230 43.228394,88.115562 42.825592,84.180000 
	C42.284515,78.893394 38.957611,77.532539 34.881584,81.015350 
	C30.913258,84.406136 28.121096,82.778183 25.015282,79.763992 
	C21.770157,76.614601 20.730427,73.706284 24.005909,69.882370 
	C27.143190,66.219795 25.850271,63.057529 21.607428,61.959202 
	C19.346455,61.373917 16.005175,59.764484 15.682684,58.120708 
	C15.212787,55.725586 17.024551,52.882824 18.231552,50.087761 
M53.912529,76.407005 
	C57.400208,76.123177 60.509857,71.988533 64.452393,75.902977 
	C68.188271,79.612236 69.053337,79.223022 71.651802,74.004242 
	C71.398270,73.621132 71.217644,73.076744 70.840988,72.820557 
	C66.590767,69.929764 67.681633,66.380669 68.938721,62.300316 
	C70.153114,58.358582 72.504051,57.613972 76.028442,57.735523 
	C76.840477,57.763527 77.694016,56.587601 78.528450,55.965702 
	C77.620491,55.278854 76.712502,54.009201 75.804573,54.009243 
	C72.442619,54.009407 70.084518,53.192745 69.075722,49.524113 
	C68.073540,45.879532 65.863350,42.341827 70.266991,39.351460 
	C70.996368,38.856167 71.345657,37.801140 72.030037,36.762894 
	C70.563881,35.372025 69.282043,34.156017 67.950745,32.893082 
	C67.081917,33.431465 66.334190,33.640907 66.019180,34.129395 
	C62.961601,38.870819 59.188679,37.055450 55.100391,35.776855 
	C51.302944,34.589222 50.941822,32.100967 50.919106,28.883284 
	C50.913136,28.037905 49.811398,27.200262 49.212860,26.359068 
	C48.508984,27.266140 47.105930,28.268255 47.214226,29.064928 
	C47.940460,34.407452 43.984657,35.018826 40.489769,36.690975 
	C36.668438,38.519314 34.573257,36.730938 32.313423,34.283188 
	C31.797796,33.724689 30.993618,33.432594 30.059143,32.855358 
	C28.547211,34.129253 27.196331,35.267445 25.883581,36.373516 
	C26.751627,37.745430 27.038763,38.338188 27.449409,38.827240 
	C32.919014,45.341148 30.420275,52.314465 22.090321,53.983116 
	C21.197987,54.161873 20.474365,55.182854 19.672482,55.813133 
	C20.615387,56.487473 21.615559,57.804855 22.491463,57.726849 
	C26.690685,57.352886 27.835238,59.781860 29.502193,63.124828 
	C32.071041,68.276466 29.079842,71.166405 26.331528,74.240112 
	C28.564791,78.344200 30.717157,79.399353 34.157974,75.835968 
	C35.181538,74.775940 37.740112,74.514450 39.381908,74.870705 
	C43.378036,75.737801 47.598686,76.744446 47.809639,82.218224 
	C47.831455,82.784302 48.748226,83.315895 49.344204,83.966637 
	C50.740597,81.317131 51.959858,79.003723 53.912529,76.407005 
z"/>
<path fill="#D07155" opacity="1.000000" stroke="none" 
	d="
M84.266129,7.799006 
	C92.222183,8.330440 96.835014,12.601672 97.120201,19.324162 
	C97.380600,25.462629 93.209122,30.674885 87.149475,31.782568 
	C81.121681,32.884426 75.134720,29.013906 73.404175,22.896328 
	C71.417549,15.873494 75.720856,9.683262 84.266129,7.799006 
M89.083870,28.813778 
	C94.735214,25.371403 96.323456,20.017281 93.352036,14.425345 
	C91.274719,10.516048 86.058060,8.888503 81.640137,10.771358 
	C76.607155,12.916338 74.343773,17.541267 75.912750,22.474556 
	C77.680870,28.034006 82.268715,30.470699 89.083870,28.813778 
z"/>
<path fill="#272D38" opacity="1.000000" stroke="none" 
	d="
M53.545822,76.548660 
	C51.959858,79.003723 50.740597,81.317131 49.344204,83.966637 
	C48.748226,83.315895 47.831455,82.784302 47.809639,82.218224 
	C47.598686,76.744446 43.378036,75.737801 39.381908,74.870705 
	C37.740112,74.514450 35.181538,74.775940 34.157974,75.835968 
	C30.717157,79.399353 28.564791,78.344200 26.331528,74.240112 
	C29.079842,71.166405 32.071041,68.276466 29.502193,63.124828 
	C27.835238,59.781860 26.690685,57.352886 22.491463,57.726849 
	C21.615559,57.804855 20.615387,56.487473 19.672482,55.813133 
	C20.474365,55.182854 21.197987,54.161873 22.090321,53.983116 
	C30.420275,52.314465 32.919014,45.341148 27.449409,38.827240 
	C27.038763,38.338188 26.751627,37.745430 25.883581,36.373516 
	C27.196331,35.267445 28.547211,34.129253 30.059143,32.855358 
	C30.993618,33.432594 31.797796,33.724689 32.313423,34.283188 
	C34.573257,36.730938 36.668438,38.519314 40.489769,36.690975 
	C43.984657,35.018826 47.940460,34.407452 47.214226,29.064928 
	C47.105930,28.268255 48.508984,27.266140 49.212860,26.359068 
	C49.811398,27.200262 50.913136,28.037905 50.919106,28.883284 
	C50.941822,32.100967 51.302944,34.589222 55.100391,35.776855 
	C59.188679,37.055450 62.961601,38.870819 66.019180,34.129395 
	C66.334190,33.640907 67.081917,33.431465 67.950745,32.893082 
	C69.282043,34.156017 70.563881,35.372025 72.030037,36.762894 
	C71.345657,37.801140 70.996368,38.856167 70.266991,39.351460 
	C65.863350,42.341827 68.073540,45.879532 69.075722,49.524113 
	C70.084518,53.192745 72.442619,54.009407 75.804573,54.009243 
	C76.712502,54.009201 77.620491,55.278854 78.528450,55.965706 
	C77.694016,56.587601 76.840477,57.763527 76.028442,57.735523 
	C72.504051,57.613972 70.153114,58.358582 68.938721,62.300316 
	C67.681633,66.380669 66.590767,69.929764 70.840988,72.820557 
	C71.217644,73.076744 71.398270,73.621132 71.651802,74.004242 
	C69.053337,79.223022 68.188271,79.612236 64.452393,75.902977 
	C60.509857,71.988533 57.400208,76.123177 53.545822,76.548660 
M38.991795,45.460861 
	C33.623302,51.785431 33.171379,59.339828 37.826035,64.948059 
	C42.847229,70.997925 51.900467,72.034668 57.993149,67.257507 
	C64.142303,62.436066 65.385109,53.266743 60.717979,47.153957 
	C55.588211,40.435223 47.003044,39.545868 38.991795,45.460861 
z"/>
<path fill="#FD7143" opacity="1.000000" stroke="none" 
	d="
M88.726341,28.951992 
	C82.268715,30.470699 77.680870,28.034006 75.912750,22.474556 
	C74.343773,17.541267 76.607155,12.916338 81.640137,10.771358 
	C86.058060,8.888503 91.274719,10.516048 93.352036,14.425345 
	C96.323456,20.017281 94.735214,25.371403 88.726341,28.951992 
z"/>
<path fill="#757E8F" opacity="1.000000" stroke="none" 
	d="
M39.260445,45.209908 
	C47.003044,39.545868 55.588211,40.435223 60.717979,47.153957 
	C65.385109,53.266743 64.142303,62.436066 57.993149,67.257507 
	C51.900467,72.034668 42.847229,70.997925 37.826035,64.948059 
	C33.171379,59.339828 33.623302,51.785431 39.260445,45.209908 
M53.367649,46.633537 
	C48.456821,44.813374 44.165718,45.666214 40.907631,49.882000 
	C37.478199,54.319496 38.586727,60.606277 43.206944,63.989719 
	C47.767143,67.329201 53.971039,66.309311 57.293690,61.673935 
	C60.772057,56.821316 59.508232,51.151028 53.367649,46.633537 
z"/>
<path fill="#262B35" opacity="1.000000" stroke="none" 
	d="
M53.703091,46.851433 
	C59.508232,51.151028 60.772057,56.821316 57.293690,61.673935 
	C53.971039,66.309311 47.767143,67.329201 43.206944,63.989719 
	C38.586727,60.606277 37.478199,54.319496 40.907631,49.882000 
	C44.165718,45.666214 48.456821,44.813374 53.703091,46.851433 
z"/>
</svg>