<svg version="1.1" id="Layer_1" xmlns="http://www.w3.org/2000/svg" xmlns:xlink="http://www.w3.org/1999/xlink" x="0px" y="0px"
	 width="100%" viewBox="0 0 130 150" enable-background="new 0 0 130 150" xml:space="preserve">
<path fill="#0986F9" opacity="1.000000" stroke="none" 
	d="
M55.000000,1.000000 
	C61.687645,1.000000 68.375290,1.000000 75.682755,1.355814 
	C105.238586,7.811111 123.220291,25.136518 129.952805,54.019173 
	C130.116776,54.722595 130.642822,55.341614 131.000000,56.000000 
	C131.000000,69.354225 131.000000,82.708458 130.647675,96.670700 
	C129.920517,98.551491 129.521286,99.817642 129.174515,101.098000 
	C122.206528,126.824821 105.748337,142.890915 79.964706,149.486984 
	C78.290367,149.915329 76.654022,150.492218 75.000000,151.000000 
	C68.978851,151.000000 62.957695,151.000000 56.297688,150.655762 
	C26.485714,143.993698 6.948160,124.705383 2.466493,97.147842 
	C2.724170,83.540504 2.833622,70.422249 2.876005,57.303772 
	C2.878470,56.540771 2.337353,55.776020 2.129857,54.630215 
	C8.040450,26.850130 24.701992,9.832500 51.629398,2.612091 
	C52.811993,2.294986 53.879097,1.547181 55.000000,1.000000 
M45.400574,43.926186 
	C39.077435,44.012497 32.744499,43.906158 26.433289,44.227077 
	C14.921146,44.812450 14.525951,45.352486 20.146828,55.240089 
	C33.450466,78.642319 46.979080,101.916771 60.460033,125.217834 
	C61.306702,126.681252 62.525997,127.929085 64.095566,129.952148 
	C66.388954,125.997612 68.032707,122.752670 70.063599,119.771446 
	C72.304573,116.481796 72.163658,113.839523 70.008270,110.309265 
	C62.477352,97.974541 55.349941,85.390793 48.209972,72.821701 
	C46.118496,69.139900 44.494881,65.192329 42.032070,60.066177 
	C50.364845,59.550640 57.476784,59.110634 64.638397,58.667553 
	C59.988163,45.939129 57.718521,44.137291 45.400574,43.926186 
M100.802986,67.307503 
	C104.744537,60.326283 108.686081,53.345066 112.727921,46.186195 
	C101.144012,42.351749 96.977165,43.788021 91.331177,52.897804 
	C89.843109,55.298801 88.557350,57.824944 87.076309,60.230583 
	C83.790108,65.568352 80.439056,70.866196 76.990173,76.378944 
	C68.615341,66.551292 61.464409,64.225357 53.100754,68.856033 
	C60.729530,81.405159 68.339470,93.923302 76.837807,107.902832 
	C77.784874,105.915756 78.027863,105.277367 78.373238,104.700264 
	C85.711838,92.438019 93.061951,80.182655 100.802986,67.307503 
z"/>
<path fill="#FCFDFF" opacity="1.000000" stroke="none" 
	d="
M2.303555,97.636871 
	C6.948160,124.705383 26.485714,143.993698 55.829414,150.655762 
	C37.740562,151.000000 19.481121,151.000000 1.000000,151.000000 
	C1.000000,133.313049 1.000000,115.625183 1.242195,97.513626 
	C1.768547,97.255623 2.041602,97.437935 2.303555,97.636871 
z"/>
<path fill="#FCFDFF" opacity="1.000000" stroke="none" 
	d="
M131.000000,55.531342 
	C130.642822,55.341614 130.116776,54.722595 129.952805,54.019173 
	C123.220291,25.136518 105.238586,7.811111 76.151291,1.355814 
	C94.260117,1.000000 112.520233,1.000000 131.000000,1.000000 
	C131.000000,19.020300 131.000000,37.041492 131.000000,55.531342 
z"/>
<path fill="#FCFDFF" opacity="1.000000" stroke="none" 
	d="
M75.468658,151.000000 
	C76.654022,150.492218 78.290367,149.915329 79.964706,149.486984 
	C105.748337,142.890915 122.206528,126.824821 129.174515,101.098000 
	C129.521286,99.817642 129.920517,98.551491 130.647675,97.139359 
	C131.000000,114.928108 131.000000,132.856216 131.000000,151.000000 
	C112.646332,151.000000 94.291824,151.000000 75.468658,151.000000 
z"/>
<path fill="#FCFDFF" opacity="1.000000" stroke="none" 
	d="
M54.531342,1.000000 
	C53.879097,1.547181 52.811993,2.294986 51.629398,2.612091 
	C24.701992,9.832500 8.040450,26.850130 1.867608,54.622574 
	C1.349806,54.997864 1.174903,54.998932 1.000000,55.000000 
	C1.000000,37.073223 1.000000,19.146444 1.000000,1.000000 
	C18.686954,1.000000 36.374821,1.000000 54.531342,1.000000 
z"/>
<path fill="#49A6FA" opacity="1.000000" stroke="none" 
	d="
M1.000000,55.468658 
	C1.174903,54.998932 1.349806,54.997864 1.786958,55.004440 
	C2.337353,55.776020 2.878470,56.540771 2.876005,57.303772 
	C2.833622,70.422249 2.724170,83.540504 2.466493,97.147842 
	C2.041602,97.437935 1.768547,97.255623 1.242195,97.044968 
	C1.000000,83.312439 1.000000,69.624878 1.000000,55.468658 
z"/>
<path fill="#E1F4FB" opacity="1.000000" stroke="none" 
	d="
M45.880878,43.951271 
	C57.718521,44.137291 59.988163,45.939129 64.638397,58.667553 
	C57.476784,59.110634 50.364845,59.550640 42.032070,60.066177 
	C44.494881,65.192329 46.118496,69.139900 48.209972,72.821701 
	C55.349941,85.390793 62.477352,97.974541 70.008270,110.309265 
	C72.163658,113.839523 72.304573,116.481796 70.063599,119.771446 
	C68.032707,122.752670 66.388954,125.997612 64.095566,129.952148 
	C62.525997,127.929085 61.306702,126.681252 60.460033,125.217834 
	C46.979080,101.916771 33.450466,78.642319 20.146828,55.240089 
	C14.525951,45.352486 14.921146,44.812450 26.433289,44.227077 
	C32.744499,43.906158 39.077435,44.012497 45.880878,43.951271 
z"/>
<path fill="#E1F4FB" opacity="1.000000" stroke="none" 
	d="
M100.606400,67.616730 
	C93.061951,80.182655 85.711838,92.438019 78.373238,104.700264 
	C78.027863,105.277367 77.784874,105.915756 76.837807,107.902832 
	C68.339470,93.923302 60.729530,81.405159 53.100754,68.856033 
	C61.464409,64.225357 68.615341,66.551292 76.990173,76.378944 
	C80.439056,70.866196 83.790108,65.568352 87.076309,60.230583 
	C88.557350,57.824944 89.843109,55.298801 91.331177,52.897804 
	C96.977165,43.788021 101.144012,42.351749 112.727921,46.186195 
	C108.686081,53.345066 104.744537,60.326283 100.606400,67.616730 
z"/>
</svg>