<svg width="512" height="512" viewBox="0 0 512 512" fill="none" xmlns="http://www.w3.org/2000/svg">
<g clip-path="url(#clip0_403_2)">
<path d="M225 1C246.021 1 267.042 1 288.198 1.33872C289.009 2.10438 289.635 2.77184 290.367 2.9223C301.981 5.30908 313.692 7.28164 325.217 10.0364C350.592 16.1021 373.809 27.2538 395.7 41.2359C416.772 54.6945 435.192 71.1815 451.645 90.0248C464.823 105.116 475.781 121.646 484.982 139.322C498.682 165.64 507.672 193.508 511.084 223.083C511.165 223.786 512.337 224.364 513 225C513 246.021 513 267.042 512.661 288.198C511.896 289.009 511.228 289.635 511.078 290.367C508.691 301.982 506.718 313.692 503.963 325.217C497.898 350.593 486.746 373.81 472.764 395.701C459.305 416.772 442.818 435.192 423.975 451.645C408.884 464.823 392.354 475.781 374.677 484.983C348.36 498.683 320.492 507.671 290.917 511.084C290.214 511.165 289.636 512.337 289 513C267.979 513 246.958 513 225.802 512.661C224.991 511.896 224.365 511.228 223.633 511.078C212.018 508.691 200.307 506.718 188.783 503.964C163.407 497.898 140.19 486.746 118.299 472.764C97.2282 459.305 78.8087 442.818 62.3549 423.975C49.1773 408.884 38.2189 392.355 29.0177 374.678C15.3182 348.36 6.32801 320.492 2.91623 290.917C2.83511 290.214 1.66316 289.636 1 289C1 267.979 1 246.958 1.33868 225.802C2.10437 224.991 2.77195 224.365 2.92241 223.633C5.30922 212.019 7.28179 200.307 10.0366 188.783C16.1021 163.407 27.2536 140.191 41.2358 118.299C54.6944 97.2279 71.1816 78.8082 90.0246 62.3545C105.116 49.177 121.645 38.2186 139.322 29.0173C165.64 15.3176 193.508 6.32837 223.083 2.9161C223.786 2.83495 224.364 1.66312 225 1ZM214.885 348.645C228.783 372.61 242.681 396.575 256.896 421.086C257.88 419.518 258.495 418.594 259.053 417.637C266.674 404.568 274.175 391.428 281.972 378.466C284.093 374.94 284.207 372.31 282.046 368.615C250.228 314.202 218.591 259.683 186.92 205.184C185.793 203.244 184.76 201.249 183.161 198.324C210.455 198.324 236.646 198.324 263.544 198.324C254.927 183.436 246.689 169.391 238.686 155.213C237.07 152.35 235.25 151.401 232.002 151.409C189.856 151.521 147.711 151.48 105.565 151.497C104.168 151.498 102.771 151.704 100.89 151.853C138.993 217.638 176.751 282.827 214.885 348.645ZM326.399 205.893C316.809 222.541 307.218 239.189 297.26 256.476C290.72 245.235 284.403 234.698 278.453 223.958C276.664 220.728 274.621 219.691 271.005 219.741C255.842 219.949 240.675 219.82 225.509 219.844C224.152 219.846 222.795 220.065 220.977 220.224C246.515 264.212 271.712 307.614 297.316 351.717C336.099 284.778 374.467 218.556 413.168 151.758C410.871 151.639 409.414 151.499 407.958 151.497C392.792 151.481 377.624 151.622 362.462 151.387C358.893 151.332 357.148 152.691 355.501 155.581C346.03 172.202 336.393 188.728 326.399 205.893Z" fill="#0085FF"/>
<path d="M214.697 348.331C176.751 282.827 138.993 217.638 100.89 151.853C102.771 151.704 104.168 151.498 105.565 151.497C147.711 151.48 189.856 151.521 232.002 151.409C235.25 151.401 237.07 152.35 238.686 155.213C246.689 169.391 254.927 183.436 263.544 198.324C236.646 198.324 210.455 198.324 183.161 198.324C184.76 201.249 185.793 203.244 186.92 205.184C218.591 259.683 250.228 314.202 282.046 368.615C284.207 372.31 284.093 374.94 281.972 378.466C274.175 391.428 266.674 404.568 259.053 417.637C258.495 418.594 257.88 419.518 256.896 421.086C242.681 396.575 228.783 372.61 214.697 348.331Z" fill="#FCFEFF"/>
<path d="M326.606 205.59C336.393 188.728 346.03 172.202 355.501 155.581C357.148 152.691 358.893 151.332 362.462 151.387C377.624 151.622 392.792 151.481 407.958 151.497C409.414 151.499 410.871 151.639 413.168 151.758C374.467 218.556 336.099 284.778 297.316 351.717C271.712 307.614 246.515 264.212 220.977 220.224C222.795 220.065 224.152 219.846 225.509 219.844C240.675 219.82 255.842 219.949 271.005 219.741C274.621 219.691 276.664 220.728 278.453 223.958C284.403 234.698 290.72 245.235 297.26 256.476C307.218 239.189 316.809 222.541 326.606 205.59Z" fill="#FDFEFF"/>
</g>
<defs>
<clipPath id="clip0_403_2">
<rect width="512" height="512" fill="white"/>
</clipPath>
</defs>
</svg>
