<svg version="1.1" id="Layer_1" xmlns="http://www.w3.org/2000/svg" xmlns:xlink="http://www.w3.org/1999/xlink" x="0px" y="0px"
	 width="100%" viewBox="0 0 145 95" enable-background="new 0 0 145 95" xml:space="preserve">
<path fill="#242831" opacity="1.000000" stroke="none" 
	d="
M110.000000,96.000000 
	C73.333336,96.000000 37.166668,96.000000 1.000000,96.000000 
	C1.000000,64.333336 1.000000,32.666668 1.000000,1.000000 
	C49.333332,1.000000 97.666664,1.000000 146.000000,1.000000 
	C146.000000,32.666668 146.000000,64.333336 146.000000,96.000000 
	C134.166672,96.000000 122.333336,96.000000 110.000000,96.000000 
M65.500427,19.421795 
	C59.345219,19.425690 53.186237,19.295902 47.035828,19.469650 
	C40.380550,19.657665 37.066940,22.830059 37.011002,29.298634 
	C36.881538,44.269699 36.884140,59.243374 37.010929,74.214485 
	C37.064327,80.519440 40.341099,83.780190 46.642570,83.826950 
	C62.279327,83.942986 77.917877,83.921799 93.554970,83.830208 
	C98.959183,83.798553 100.726562,81.590538 101.329811,76.212204 
	C101.618294,73.640137 103.017860,71.187889 103.950333,68.694885 
	C104.408279,67.470520 105.457512,66.237518 105.367546,65.075928 
	C104.849464,58.386826 106.747429,51.870209 102.326530,45.007015 
	C99.427597,40.506588 99.416039,33.548294 97.385880,27.719158 
	C95.233055,21.537851 94.796272,19.544619 87.960205,19.445242 
	C80.808319,19.341276 73.653740,19.422009 65.500427,19.421795 
z"/>
<path fill="#778091" opacity="1.000000" stroke="none" 
	d="
M66.000381,19.421900 
	C73.653740,19.422009 80.808319,19.341276 87.960205,19.445242 
	C94.796272,19.544619 95.233055,21.537851 97.385880,27.719158 
	C99.416039,33.548294 99.427597,40.506588 102.326530,45.007015 
	C106.747429,51.870209 104.849464,58.386826 105.367546,65.075928 
	C105.457512,66.237518 104.408279,67.470520 103.950333,68.694885 
	C103.017860,71.187889 101.618294,73.640137 101.329811,76.212204 
	C100.726562,81.590538 98.959183,83.798553 93.554970,83.830208 
	C77.917877,83.921799 62.279327,83.942986 46.642570,83.826950 
	C40.341099,83.780190 37.064327,80.519440 37.010929,74.214485 
	C36.884140,59.243374 36.881538,44.269699 37.011002,29.298634 
	C37.066940,22.830059 40.380550,19.657665 47.035828,19.469650 
	C53.186237,19.295902 59.345219,19.425690 66.000381,19.421900 
M58.508709,23.875854 
	C55.179588,23.875906 51.849945,23.838257 48.521458,23.884207 
	C42.432930,23.968258 41.252995,25.097692 41.227913,31.246977 
	C41.172916,44.729645 41.177105,58.212772 41.218460,71.695526 
	C41.239071,78.415665 42.253864,79.409927 49.167141,79.431839 
	C62.816303,79.475105 76.465744,79.448097 90.115036,79.429398 
	C97.192558,79.419708 97.807037,78.617210 96.148109,71.018867 
	C93.997643,71.018867 91.701469,71.074028 89.408714,71.008965 
	C81.146019,70.774483 75.799522,65.757500 75.758942,58.250755 
	C75.717934,50.663342 80.815720,45.665783 89.140411,45.160625 
	C91.575081,45.012882 94.013474,44.926395 96.335739,44.817215 
	C98.017662,35.026608 97.692879,34.590092 88.421349,34.556522 
	C77.269012,34.516148 66.113327,34.690781 54.966324,34.444588 
	C52.512821,34.390400 49.989037,33.159653 47.720333,32.025280 
	C47.119793,31.725004 47.347862,29.767538 47.195461,28.570997 
	C48.236568,28.635513 49.302498,28.580765 50.313259,28.791113 
	C52.044071,29.151312 53.736088,30.053061 55.451847,30.072582 
	C66.270050,30.195663 77.092781,30.251970 87.907234,30.017717 
	C89.522354,29.982731 92.214485,28.550726 92.484085,27.337433 
	C93.220161,24.024681 90.437119,23.876589 87.969574,23.879202 
	C78.481628,23.889250 68.993660,23.878792 58.508709,23.875854 
M96.319778,49.607571 
	C93.021088,49.744576 89.409470,49.098988 86.518280,50.255085 
	C84.002060,51.261250 81.078110,54.055058 80.580345,56.513645 
	C80.080704,58.981510 81.785484,63.910736 83.526207,64.435158 
	C88.529488,65.942467 94.070366,66.194771 99.318054,65.813217 
	C100.142960,65.753242 100.583649,59.831745 101.110725,56.605583 
	C101.268448,55.640148 101.056808,54.620441 101.117439,53.631920 
	C101.287018,50.866951 99.833504,49.733513 96.319778,49.607571 
z"/>
<path fill="#252B34" opacity="1.000000" stroke="none" 
	d="
M59.007202,23.875917 
	C68.993660,23.878792 78.481628,23.889250 87.969574,23.879202 
	C90.437119,23.876589 93.220161,24.024681 92.484085,27.337433 
	C92.214485,28.550726 89.522354,29.982731 87.907234,30.017717 
	C77.092781,30.251970 66.270050,30.195663 55.451847,30.072582 
	C53.736088,30.053061 52.044071,29.151312 50.313259,28.791113 
	C49.302498,28.580765 48.236568,28.635513 47.195461,28.570999 
	C47.347862,29.767538 47.119793,31.725004 47.720333,32.025280 
	C49.989037,33.159653 52.512821,34.390400 54.966324,34.444588 
	C66.113327,34.690781 77.269012,34.516148 88.421349,34.556522 
	C97.692879,34.590092 98.017662,35.026608 96.335739,44.817215 
	C94.013474,44.926395 91.575081,45.012882 89.140411,45.160625 
	C80.815720,45.665783 75.717934,50.663342 75.758942,58.250755 
	C75.799522,65.757500 81.146019,70.774483 89.408714,71.008965 
	C91.701469,71.074028 93.997643,71.018867 96.148109,71.018867 
	C97.807037,78.617210 97.192558,79.419708 90.115036,79.429398 
	C76.465744,79.448097 62.816303,79.475105 49.167141,79.431839 
	C42.253864,79.409927 41.239071,78.415665 41.218460,71.695526 
	C41.177105,58.212772 41.172916,44.729645 41.227913,31.246977 
	C41.252995,25.097692 42.432930,23.968258 48.521458,23.884207 
	C51.849945,23.838257 55.179588,23.875906 59.007202,23.875917 
z"/>
<path fill="#262C37" opacity="1.000000" stroke="none" 
	d="
M96.788780,49.637650 
	C99.833504,49.733513 101.287018,50.866951 101.117439,53.631920 
	C101.056808,54.620441 101.268448,55.640148 101.110725,56.605583 
	C100.583649,59.831745 100.142960,65.753242 99.318054,65.813217 
	C94.070366,66.194771 88.529488,65.942467 83.526207,64.435158 
	C81.785484,63.910736 80.080704,58.981510 80.580345,56.513645 
	C81.078110,54.055058 84.002060,51.261250 86.518280,50.255085 
	C89.409470,49.098988 93.021088,49.744576 96.788780,49.637650 
M86.550285,55.800625 
	C86.602333,57.373531 86.461395,58.997593 86.854408,60.480106 
	C86.942650,60.812977 89.275436,61.113472 89.900749,60.603024 
	C90.736908,59.920441 91.564690,57.688580 91.260475,57.423054 
	C90.136475,56.441982 88.545074,55.996407 86.550285,55.800625 
z"/>
<path fill="#787D8E" opacity="1.000000" stroke="none" 
	d="
M86.839828,55.575077 
	C88.545074,55.996407 90.136475,56.441982 91.260475,57.423054 
	C91.564690,57.688580 90.736908,59.920441 89.900749,60.603024 
	C89.275436,61.113472 86.942650,60.812977 86.854408,60.480106 
	C86.461395,58.997593 86.602333,57.373531 86.839828,55.575077 
z"/>
</svg>